<?xml version="1.0" standalone="no"?>
<!DOCTYPE svg PUBLIC "-//W3C//DTD SVG 20010904//EN"
 "http://www.w3.org/TR/2001/REC-SVG-20010904/DTD/svg10.dtd">
<svg version="1.0" xmlns="http://www.w3.org/2000/svg"
 width="700.000000pt" height="700.000000pt" viewBox="0 0 700.000000 700.000000"
 preserveAspectRatio="xMidYMid meet">
<metadata>
Created by potrace 1.14, written by Peter Selinger 2001-2017
</metadata>
<g transform="translate(0.000000,700.000000) scale(0.100000,-0.100000)"
fill="#000000" stroke="none">
<path d="M2830 6700 c-182 -31 -339 -175 -393 -360 -17 -56 -21 -183 -8 -227
l9 -32 -755 -755 -755 -755 -91 6 c-109 7 -173 -5 -265 -49 -84 -40 -186 -140
-225 -220 -78 -159 -66 -361 28 -502 19 -28 294 -310 612 -627 638 -636 622
-623 779 -652 123 -23 211 -9 324 49 73 38 157 115 194 178 57 97 83 233 66
338 l-8 53 71 73 c39 39 74 72 77 72 3 0 14 -14 24 -31 24 -41 81 -94 131
-124 121 -72 285 -63 407 21 l39 27 23 -24 c20 -20 187 -212 370 -423 28 -33
71 -83 96 -111 25 -27 133 -151 240 -275 107 -124 199 -230 205 -236 5 -6 33
-38 61 -70 28 -33 114 -131 191 -219 76 -88 249 -286 382 -440 134 -154 265
-305 291 -335 27 -30 57 -64 67 -76 43 -50 129 -148 138 -158 6 -6 55 -63 110
-126 152 -175 185 -209 250 -255 182 -129 385 -170 615 -121 213 44 421 219
516 433 41 95 56 163 58 283 5 191 -64 375 -196 521 -13 14 -50 49 -83 79 -33
29 -76 67 -95 84 -19 17 -66 58 -105 91 -38 33 -75 65 -81 70 -6 6 -42 37 -80
70 -38 33 -112 98 -164 145 -53 47 -118 103 -145 125 -26 22 -55 47 -64 55 -9
9 -47 43 -86 75 -38 33 -77 67 -85 75 -8 8 -44 40 -80 70 -36 30 -81 69 -100
86 -38 34 -416 364 -520 454 -35 30 -68 60 -74 65 -6 6 -45 39 -86 75 -41 36
-77 67 -80 70 -19 21 -698 609 -721 625 -37 26 -45 50 -23 72 10 10 31 47 47
83 43 94 42 206 -1 302 -31 70 -93 138 -162 178 -22 13 126 162 153 154 39
-12 164 -11 222 3 147 34 270 132 335 267 80 166 70 341 -29 494 -16 26 -290
306 -608 623 -611 609 -617 615 -740 648 -56 15 -167 20 -223 11z m194 -265
c28 -12 203 -180 602 -580 458 -458 568 -572 584 -611 91 -211 -128 -424 -333
-325 -29 14 -217 195 -602 580 -436 436 -565 571 -582 608 -64 137 15 300 167
343 38 11 120 4 164 -15z m75 -1118 l529 -528 -708 -709 -708 -708 -531 531
-531 532 707 707 c389 389 708 706 710 705 1 -1 240 -240 532 -530z m-2206
-1010 c66 -30 1156 -1118 1189 -1187 16 -32 22 -63 22 -105 -2 -181 -185 -299
-351 -225 -58 26 -1149 1114 -1184 1181 -34 66 -32 158 6 227 63 116 201 164
318 109z m2725 -44 c41 -35 57 -92 38 -137 -20 -48 -752 -774 -790 -784 -66
-18 -138 21 -154 82 -19 73 -14 80 392 485 l382 381 50 0 c40 0 56 -6 82 -27z
m212 -702 c91 -79 191 -167 224 -195 32 -28 64 -56 70 -61 6 -6 67 -59 136
-119 69 -60 143 -125 166 -145 22 -20 69 -61 104 -91 146 -126 466 -405 476
-415 6 -5 37 -32 69 -60 32 -27 70 -60 84 -72 l26 -23 -280 -280 c-154 -154
-282 -280 -286 -280 -3 0 -72 77 -154 171 -82 94 -153 176 -159 183 -6 6 -54
61 -106 121 -52 61 -97 112 -100 115 -3 3 -34 39 -70 80 -36 41 -77 88 -91
105 -15 16 -120 138 -235 270 -115 132 -211 242 -214 245 -3 3 -30 34 -60 70
-30 36 -57 67 -60 70 -3 3 -27 29 -53 59 l-48 55 182 182 c154 154 185 181
198 171 9 -7 90 -77 181 -156z m1637 -1427 c48 -42 89 -79 91 -83 1 -3 -135
-143 -303 -311 l-306 -305 -32 36 c-72 81 -122 143 -122 152 0 10 565 585 577
586 4 1 47 -33 95 -75z m574 -502 c156 -136 296 -264 310 -283 89 -117 125
-277 94 -421 -25 -118 -153 -276 -265 -330 -198 -95 -423 -61 -570 84 -49 49
-47 46 -234 263 -71 83 -134 155 -140 160 -15 14 -101 117 -110 132 -4 8 105
125 306 327 172 173 316 315 319 315 4 1 134 -111 290 -247z"/>
<path d="M2512 5433 c-35 -18 -568 -549 -587 -585 -56 -103 57 -223 160 -170
30 15 557 536 588 582 23 33 21 88 -3 128 -31 51 -105 72 -158 45z"/>
<path d="M1625 4546 c-66 -29 -90 -123 -47 -183 71 -100 233 -42 224 80 -7 88
-95 139 -177 103z"/>
<path d="M901 1788 c-145 -25 -282 -143 -333 -286 -38 -109 -30 -232 23 -340
17 -35 29 -64 27 -66 -84 -59 -120 -88 -151 -121 -44 -47 -101 -130 -118 -171
-6 -16 -15 -38 -20 -49 -22 -53 -32 -121 -35 -233 -3 -142 5 -174 52 -206 l34
-23 1668 1 c1574 1 1669 2 1695 19 52 34 60 66 54 216 -3 99 -10 154 -25 201
-42 128 -136 255 -248 330 -27 18 -50 34 -52 35 -2 2 11 30 28 63 103 202 38
444 -152 566 -117 75 -23 69 -1278 71 -619 0 -1145 -3 -1169 -7z m2293 -263
c78 -38 120 -134 96 -220 -15 -53 -70 -111 -119 -126 -24 -7 -402 -9 -1148 -7
l-1111 3 -39 31 c-51 42 -75 85 -78 142 -5 89 54 167 142 191 13 3 517 6 1121
6 1053 -1 1099 -1 1136 -20z m83 -621 c141 -43 261 -183 266 -313 l2 -46
-1500 0 -1500 0 3 40 c9 141 129 281 273 319 80 20 2387 21 2456 0z"/>
</g>
</svg>
