<svg width="48" height="48" viewBox="0 0 48 48" fill="none" xmlns="http://www.w3.org/2000/svg">
<g clip-path="url(#clip0_964_6282)">
<g clip-path="url(#clip1_964_6282)">
<path d="M16.1094 3.55273H7.83268C7.43466 3.55273 7.11215 3.87534 7.11215 4.27326C7.11215 4.67118 7.43466 4.99378 7.83268 4.99378H16.1094C16.5074 4.99378 16.8299 4.67118 16.8299 4.27326C16.8299 3.87534 16.5073 3.55273 16.1094 3.55273Z" fill="#295C7A"/>
<path d="M16.1094 6.87793H7.83268C7.43466 6.87793 7.11215 7.20053 7.11215 7.59845C7.11215 7.99638 7.43466 8.31898 7.83268 8.31898H16.1094C16.5074 8.31898 16.8299 7.99638 16.8299 7.59845C16.8299 7.20053 16.5073 6.87793 16.1094 6.87793Z" fill="#295C7A"/>
<path d="M45.1459 42.4708L29.8762 28.3214C30.5726 27.5497 31.2299 26.7702 31.8417 25.9872C33.0221 26.8142 34.6624 26.7052 35.72 25.6549C36.9099 24.4731 36.9166 22.5535 35.7346 21.3634L29.376 14.9611C28.1969 13.7739 26.2717 13.7674 25.0844 14.9464C24.1534 15.8711 23.9488 17.2546 24.4725 18.3812C21.5601 20.6094 18.5903 23.5325 16.253 26.5443C15.1518 26.0209 13.7616 26.1921 12.8131 27.1342C11.6233 28.3159 11.6164 30.2355 12.7985 31.4256L19.1572 37.8279C20.3378 39.0167 22.2585 39.0245 23.4486 37.8425C24.5057 36.7925 24.626 35.1517 23.8075 33.9665C24.5964 33.3586 25.3823 32.7051 26.1606 32.0121L40.205 47.3779C41.1594 48.4219 42.7903 48.4622 43.7947 47.4646L45.208 46.0609C46.2109 45.065 46.1865 43.435 45.1459 42.4708ZM26.1 15.9689C26.7249 15.3483 27.7358 15.3546 28.3536 15.9766L34.7123 22.379C35.3328 23.0038 35.3296 24.0118 34.7046 24.6324C34.0811 25.2517 33.0701 25.2481 32.451 24.6247L26.0923 18.2224C25.4731 17.599 25.4766 16.5881 26.1 15.9689ZM25.3525 19.5224L30.7871 24.9944C28.5692 27.8534 25.7017 30.7028 22.822 32.9053L17.3873 27.4334C19.5484 24.6474 22.404 21.7777 25.3525 19.5224ZM22.4332 36.8202C21.8089 37.4402 20.8004 37.4375 20.1797 36.8125L13.821 30.4102C13.2004 29.7854 13.2037 28.7773 13.8287 28.1567C14.4529 27.5367 15.4615 27.5395 16.0822 28.1644L22.441 34.5667C23.0601 35.19 23.0567 36.2009 22.4332 36.8202ZM44.1925 45.0385L42.7792 46.4422C42.3448 46.8737 41.6599 46.8337 41.2687 46.4057L27.2214 31.0367C27.5042 30.769 27.7862 30.4979 28.066 30.22C28.3476 29.9404 28.6223 29.6585 28.8937 29.3757L44.1664 43.5278C44.6017 43.9312 44.6169 44.6171 44.1925 45.0385Z" fill="#295C7A"/>
<path d="M36.5607 46.7131C36.4266 46.7352 36.2888 46.7465 36.1513 46.7465H5.98534C4.61346 46.7465 3.49741 45.6304 3.49741 44.2585V2.92897C3.49741 1.55719 4.61346 0.441048 5.98534 0.441048H29.466C29.563 0.441048 29.6585 0.450751 29.7523 0.466507V5.39902C29.7523 7.56549 31.5148 9.32799 33.6812 9.32799H38.6137C38.6295 9.42185 38.6392 9.51725 38.6392 9.61428V34.7577C38.6392 35.1556 38.9617 35.4782 39.3597 35.4782C39.7577 35.4782 40.0802 35.1556 40.0802 34.7577V9.61428C40.0802 8.77252 39.7525 7.98119 39.1574 7.38603L31.6942 -0.0769607C31.0992 -0.67221 30.3078 -1 29.466 -1H5.98534C3.81896 -1 2.05637 0.762594 2.05637 2.92897V44.2584C2.05637 46.4249 3.81896 48.1875 5.98534 48.1875H36.1513C36.3672 48.1875 36.5841 48.1697 36.7957 48.1347C37.1883 48.0699 37.454 47.699 37.389 47.3063C37.3242 46.9138 36.9531 46.6475 36.5607 46.7131ZM37.6203 7.88694H33.6812C32.3093 7.88694 31.1933 6.7708 31.1933 5.39902V1.46006L37.6203 7.88694Z" fill="#295C7A"/>
</g>
</g>
<defs>
<clipPath id="clip0_964_6282">
<rect width="48" height="48" fill="white"/>
</clipPath>
<clipPath id="clip1_964_6282">
<rect width="44" height="49.1878" fill="white" transform="translate(2 -1)"/>
</clipPath>
</defs>
</svg>
