<svg width="52" height="48" viewBox="0 0 52 48" fill="none" xmlns="http://www.w3.org/2000/svg">
<g filter="url(#filter0_d_964_6319)">
<g clip-path="url(#clip0_964_6319)">
<path d="M26.0337 39.5469H21.9664C21.7851 39.5469 21.6113 39.4747 21.4832 39.3462C21.355 39.2177 21.283 39.0434 21.283 38.8617V5.76686C21.283 5.04431 21.5693 4.35135 22.0788 3.84043C22.5884 3.32951 23.2794 3.04248 24 3.04248C24.7206 3.04248 25.4117 3.32951 25.9212 3.84043C26.4308 4.35135 26.717 5.04431 26.717 5.76686V38.8624C26.7169 39.044 26.6448 39.2181 26.5166 39.3464C26.3885 39.4748 26.2148 39.5469 26.0337 39.5469ZM22.6497 38.1765H25.3503V5.76686C25.3503 5.40777 25.2081 5.06338 24.9548 4.80946C24.7016 4.55554 24.3581 4.41289 24 4.41289C23.6419 4.41289 23.2984 4.55554 23.0452 4.80946C22.792 5.06338 22.6497 5.40777 22.6497 5.76686V38.1765Z" fill="#295C7A"/>
<path d="M7.53126 12.2283H5.18532C4.62873 12.2183 4.0983 11.9895 3.70822 11.5913C3.31813 11.1931 3.09956 10.6572 3.09956 10.099C3.09956 9.54081 3.31813 9.00493 3.70822 8.6067C4.0983 8.20847 4.62873 7.97974 5.18532 7.96973H7.19847C7.3797 7.96973 7.55352 8.04192 7.68167 8.17042C7.80982 8.29892 7.88182 8.47321 7.88182 8.65493C7.88182 8.83666 7.80982 9.01095 7.68167 9.13945C7.55352 9.26795 7.3797 9.34014 7.19847 9.34014H5.18532C4.98854 9.34607 4.8018 9.42862 4.6647 9.57029C4.52759 9.71196 4.45091 9.9016 4.45091 10.099C4.45091 10.2964 4.52759 10.4861 4.6647 10.6277C4.8018 10.7694 4.98854 10.8519 5.18532 10.8579H7.53126C7.7125 10.8579 7.88631 10.9301 8.01446 11.0586C8.14262 11.1871 8.21461 11.3614 8.21461 11.5431C8.21461 11.7248 8.14262 11.8991 8.01446 12.0276C7.88631 12.1561 7.7125 12.2283 7.53126 12.2283Z" fill="#295C7A"/>
<path d="M21.9663 12.2283H11.6648C11.4836 12.2283 11.3098 12.1561 11.1816 12.0276C11.0535 11.8991 10.9815 11.7248 10.9815 11.5431C10.9815 11.3614 11.0535 11.1871 11.1816 11.0586C11.3098 10.9301 11.4836 10.8579 11.6648 10.8579H21.283V9.34014H11.9969C11.8157 9.34014 11.6419 9.26795 11.5137 9.13945C11.3856 9.01095 11.3136 8.83666 11.3136 8.65493C11.3136 8.47321 11.3856 8.29892 11.5137 8.17042C11.6419 8.04192 11.8157 7.96973 11.9969 7.96973H21.9663C22.1476 7.96973 22.3214 8.04192 22.4495 8.17042C22.5777 8.29892 22.6497 8.47321 22.6497 8.65493V11.5431C22.6497 11.7248 22.5777 11.8991 22.4495 12.0276C22.3214 12.1561 22.1476 12.2283 21.9663 12.2283Z" fill="#295C7A"/>
<path d="M36.1862 12.2283H26.0337C25.8525 12.2283 25.6786 12.1561 25.5505 12.0276C25.4223 11.8991 25.3503 11.7248 25.3503 11.5431V8.65493C25.3503 8.47321 25.4223 8.29892 25.5505 8.17042C25.6786 8.04192 25.8525 7.96973 26.0337 7.96973H35.8541C36.0354 7.96973 36.2092 8.04192 36.3373 8.17042C36.4655 8.29892 36.5375 8.47321 36.5375 8.65493C36.5375 8.83666 36.4655 9.01095 36.3373 9.13945C36.2092 9.26795 36.0354 9.34014 35.8541 9.34014H26.717V10.8579H36.1862C36.3675 10.8579 36.5413 10.9301 36.6694 11.0586C36.7976 11.1871 36.8696 11.3614 36.8696 11.5431C36.8696 11.7248 36.7976 11.8991 36.6694 12.0276C36.5413 12.1561 36.3675 12.2283 36.1862 12.2283Z" fill="#295C7A"/>
<path d="M42.8079 12.2283H40.4688C40.2875 12.2283 40.1137 12.1561 39.9856 12.0276C39.8574 11.8991 39.7854 11.7248 39.7854 11.5431C39.7854 11.3614 39.8574 11.1871 39.9856 11.0586C40.1137 10.9301 40.2875 10.8579 40.4688 10.8579H42.8079C43.0046 10.8519 43.1914 10.7694 43.3285 10.6277C43.4656 10.4861 43.5423 10.2964 43.5423 10.099C43.5423 9.9016 43.4656 9.71196 43.3285 9.57029C43.1914 9.42862 43.0046 9.34607 42.8079 9.34014H40.8056C40.6244 9.34014 40.4506 9.26795 40.3224 9.13945C40.1943 9.01095 40.1223 8.83666 40.1223 8.65493C40.1223 8.47321 40.1943 8.29892 40.3224 8.17042C40.4506 8.04192 40.6244 7.96973 40.8056 7.96973H42.8079C43.3645 7.97974 43.8949 8.20847 44.285 8.6067C44.6751 9.00493 44.8936 9.54081 44.8936 10.099C44.8936 10.6572 44.6751 11.1931 44.285 11.5913C43.8949 11.9895 43.3645 12.2183 42.8079 12.2283Z" fill="#295C7A"/>
<path d="M32.6546 43.9572H15.3454C15.2417 43.9571 15.1393 43.9334 15.0461 43.8878C14.9529 43.8422 14.8712 43.7759 14.8073 43.6939C14.7435 43.612 14.699 43.5165 14.6774 43.4148C14.6558 43.3131 14.6575 43.2078 14.6825 43.1068C14.9643 41.7517 15.6899 40.53 16.7439 39.636C17.7979 38.7421 19.1198 38.2272 20.4992 38.1733H27.5008C28.8803 38.2272 30.2021 38.7421 31.2561 39.636C32.3101 40.53 33.0357 41.7517 33.3175 43.1068C33.3425 43.2078 33.3442 43.3131 33.3226 43.4148C33.301 43.5165 33.2566 43.612 33.1927 43.6939C33.1288 43.7759 33.0472 43.8422 32.9539 43.8878C32.8607 43.9334 32.7584 43.9571 32.6546 43.9572ZM16.2905 42.5868H31.7096C31.3843 41.721 30.8114 40.9707 30.0627 40.43C29.314 39.8893 28.4228 39.5822 27.5008 39.5472H20.4992C19.5772 39.5822 18.686 39.8893 17.9373 40.43C17.1886 40.9707 16.6157 41.721 16.2905 42.5868Z" fill="#295C7A"/>
<path d="M34.5051 43.9568H13.4949C13.3136 43.9568 13.1398 43.8846 13.0117 43.7561C12.8835 43.6276 12.8115 43.4534 12.8115 43.2716C12.8115 43.0899 12.8835 42.9156 13.0117 42.7871C13.1398 42.6586 13.3136 42.5864 13.4949 42.5864H34.5051C34.6864 42.5864 34.8602 42.6586 34.9883 42.7871C35.1165 42.9156 35.1885 43.0899 35.1885 43.2716C35.1885 43.4534 35.1165 43.6276 34.9883 43.7561C34.8602 43.8846 34.6864 43.9568 34.5051 43.9568Z" fill="#295C7A"/>
<path d="M47.2339 29.4093H29.5754C29.461 29.4094 29.3485 29.3807 29.248 29.3258C29.1475 29.2709 29.0624 29.1916 29.0005 29.0952C28.9385 28.9988 28.9017 28.8883 28.8934 28.7739C28.8851 28.6595 28.9055 28.5448 28.9529 28.4404L36.4561 11.8762C36.493 11.7941 36.5458 11.72 36.6113 11.6583C36.6769 11.5966 36.7539 11.5485 36.838 11.5167C36.9221 11.4849 37.0117 11.4701 37.1015 11.473C37.1914 11.476 37.2798 11.4967 37.3616 11.534C37.4435 11.5713 37.5172 11.6244 37.5785 11.6902C37.6399 11.7561 37.6877 11.8335 37.7191 11.9179C37.7506 12.0024 37.7652 12.0922 37.762 12.1823C37.7588 12.2724 37.7379 12.3609 37.7005 12.4429L30.636 28.0389H46.1706L39.1123 12.4429C39.0752 12.3609 39.0546 12.2724 39.0517 12.1825C39.0487 12.0925 39.0634 12.0029 39.095 11.9186C39.1266 11.8344 39.1745 11.7572 39.2358 11.6915C39.2972 11.6258 39.3708 11.5729 39.4526 11.5357C39.5343 11.4985 39.6226 11.4779 39.7123 11.4749C39.802 11.4719 39.8914 11.4867 39.9754 11.5184C40.0594 11.5501 40.1364 11.5981 40.2019 11.6596C40.2675 11.7211 40.3203 11.7949 40.3573 11.8769L47.853 28.4411C47.9001 28.5452 47.9204 28.6595 47.9122 28.7735C47.904 28.8876 47.8675 28.9977 47.8059 29.0939C47.7444 29.1902 47.6598 29.2695 47.5599 29.3245C47.46 29.3796 47.3479 29.4088 47.2339 29.4093Z" fill="#295C7A"/>
<path d="M38.4747 38.1491H38.3325C32.861 38.1491 28.8893 34.1859 28.8893 28.7248C28.8893 28.543 28.9613 28.3687 29.0895 28.2402C29.2176 28.1117 29.3915 28.0396 29.5727 28.0396H47.2339C47.4151 28.0396 47.5889 28.1117 47.7171 28.2402C47.8452 28.3687 47.9172 28.543 47.9172 28.7248C47.9172 34.1893 43.9456 38.1491 38.4747 38.1491ZM30.28 29.41C30.5847 33.783 33.8095 36.7787 38.3325 36.7787H38.4747C42.9971 36.7787 46.2225 33.783 46.5266 29.41H30.28Z" fill="#295C7A"/>
<path d="M38.4036 13.2057C37.7391 13.2058 37.0896 13.0084 36.537 12.6383C35.9845 12.2682 35.5538 11.7421 35.2994 11.1266C35.0451 10.5111 34.9785 9.83372 35.1081 9.18024C35.2377 8.52675 35.5577 7.92649 36.0275 7.45536C36.4974 6.98422 37.096 6.66339 37.7477 6.53344C38.3994 6.40349 39.0749 6.47026 39.6888 6.72529C40.3027 6.98033 40.8273 7.41218 41.1964 7.96623C41.5655 8.52028 41.7624 9.17163 41.7623 9.83791C41.7612 10.7308 41.407 11.5868 40.7773 12.2181C40.1477 12.8494 39.2941 13.2046 38.4036 13.2057ZM38.4036 7.83985C38.0095 7.83972 37.6242 7.95678 37.2964 8.17625C36.9686 8.39572 36.7131 8.70773 36.5622 9.07281C36.4112 9.4379 36.3717 9.83967 36.4485 10.2273C36.5253 10.6149 36.715 10.971 36.9937 11.2505C37.2723 11.53 37.6274 11.7204 38.0139 11.7975C38.4005 11.8747 38.8012 11.8352 39.1653 11.6839C39.5295 11.5327 39.8407 11.2766 40.0597 10.948C40.2787 10.6195 40.3956 10.2331 40.3956 9.83791C40.395 9.30828 40.185 8.80048 39.8116 8.42591C39.4382 8.05134 38.9318 7.84058 38.4036 7.83985Z" fill="#295C7A"/>
<path d="M18.4239 29.4093H0.766131C0.651794 29.4093 0.539294 29.3805 0.438934 29.3255C0.338573 29.2706 0.253562 29.1913 0.191685 29.0949C0.129809 28.9985 0.0930466 28.8881 0.0847648 28.7737C0.0764831 28.6594 0.0969469 28.5448 0.144282 28.4404L7.64883 11.8762C7.72377 11.7107 7.86123 11.5818 8.03097 11.5178C8.20071 11.4539 8.38882 11.4602 8.55393 11.5354C8.71903 11.6105 8.84761 11.7483 8.91136 11.9185C8.97512 12.0887 8.96884 12.2774 8.8939 12.4429L1.82942 28.0389H17.364L10.3057 12.4429C10.2664 12.3607 10.244 12.2714 10.2395 12.1804C10.2351 12.0893 10.2489 11.9983 10.28 11.9126C10.3111 11.827 10.359 11.7484 10.4208 11.6815C10.4825 11.6146 10.557 11.5608 10.6398 11.5231C10.7226 11.4855 10.8121 11.4647 10.903 11.4622C10.9938 11.4596 11.0843 11.4753 11.1691 11.5082C11.2539 11.5412 11.3312 11.5908 11.3966 11.6541C11.4621 11.7174 11.5142 11.7932 11.5501 11.8769L19.0464 28.4411C19.0936 28.5455 19.114 28.6601 19.1056 28.7744C19.0972 28.8887 19.0603 28.9991 18.9984 29.0954C18.9365 29.1917 18.8514 29.2709 18.7511 29.3258C18.6507 29.3806 18.5382 29.4093 18.4239 29.4093Z" fill="#295C7A"/>
<path d="M9.66742 38.1491H9.52529C4.05439 38.1491 0.082756 34.1893 0.082756 28.7248C0.082756 28.543 0.154752 28.3687 0.282905 28.2402C0.411058 28.1117 0.58487 28.0396 0.766106 28.0396H18.4273C18.6085 28.0396 18.7823 28.1117 18.9105 28.2402C19.0386 28.3687 19.1106 28.543 19.1106 28.7248C19.1106 34.1893 15.139 38.1491 9.66742 38.1491ZM1.47337 29.41C1.77746 33.783 5.00288 36.7787 9.52529 36.7787H9.66742C14.1905 36.7787 17.4152 33.783 17.72 29.41H1.47337Z" fill="#295C7A"/>
<path d="M9.59636 13.2057C8.93192 13.2057 8.2824 13.0081 7.72994 12.638C7.17748 12.2678 6.74691 11.7417 6.49267 11.1261C6.23843 10.5106 6.17194 9.83326 6.30162 9.17982C6.43129 8.52638 6.75131 7.92618 7.22119 7.45511C7.69107 6.98405 8.28971 6.66329 8.94141 6.53339C9.5931 6.4035 10.2686 6.4703 10.8824 6.72536C11.4962 6.98042 12.0208 7.41227 12.3899 7.9663C12.7589 8.52033 12.9558 9.17166 12.9557 9.83791C12.9546 10.7309 12.6003 11.587 11.9705 12.2183C11.3408 12.8497 10.4869 13.2048 9.59636 13.2057ZM9.59636 7.83985C9.20226 7.83985 8.817 7.95703 8.48931 8.17658C8.16162 8.39613 7.90622 8.70819 7.7554 9.07329C7.60458 9.43839 7.56512 9.84013 7.642 10.2277C7.71889 10.6153 7.90867 10.9713 8.18735 11.2508C8.46603 11.5302 8.82108 11.7205 9.20762 11.7976C9.59415 11.8747 9.99481 11.8351 10.3589 11.6839C10.723 11.5327 11.0342 11.2766 11.2532 10.948C11.4721 10.6194 11.589 10.2331 11.589 9.83791C11.5885 9.30816 11.3784 8.80026 11.0048 8.42567C10.6312 8.05108 10.1247 7.8404 9.59636 7.83985Z" fill="#295C7A"/>
</g>
</g>
<defs>
<filter id="filter0_d_964_6319" x="-4" y="0" width="56" height="56" filterUnits="userSpaceOnUse" color-interpolation-filters="sRGB">
<feFlood flood-opacity="0" result="BackgroundImageFix"/>
<feColorMatrix in="SourceAlpha" type="matrix" values="0 0 0 0 0 0 0 0 0 0 0 0 0 0 0 0 0 0 127 0" result="hardAlpha"/>
<feOffset dy="4"/>
<feGaussianBlur stdDeviation="2"/>
<feComposite in2="hardAlpha" operator="out"/>
<feColorMatrix type="matrix" values="0 0 0 0 0 0 0 0 0 0 0 0 0 0 0 0 0 0 0.25 0"/>
<feBlend mode="normal" in2="BackgroundImageFix" result="effect1_dropShadow_964_6319"/>
<feBlend mode="normal" in="SourceGraphic" in2="effect1_dropShadow_964_6319" result="shape"/>
</filter>
<clipPath id="clip0_964_6319">
<rect width="48" height="41" fill="white" transform="translate(0 3)"/>
</clipPath>
</defs>
</svg>
